<?xml version="1.0" encoding="UTF-8"?>
<svg width="813px" height="376px" viewBox="0 0 813 376" version="1.1" xmlns="http://www.w3.org/2000/svg" xmlns:xlink="http://www.w3.org/1999/xlink">
    <!-- Generator: Sketch 46.2 (44496) - http://www.bohemiancoding.com/sketch -->
    <title>Group</title>
    <desc>Created with Sketch.</desc>
    <defs></defs>
    <g id="Page-1" stroke="none" stroke-width="1" fill="none" fill-rule="evenodd">
        <g id="Group" transform="translate(406.500000, 188.000000) rotate(-90.000000) translate(-406.500000, -188.000000) translate(219.000000, -218.000000)" fill="#000000">
            <path d="M0,0 L375,0 L375,812 L0,812 L0,0 Z M45,0 C15,0 0,15 0,45 L0,767 C0,797 15,812 45,812 L330,812 C360,812 375,797 375,767 L375,45 C375,15 360,0 330,0 L45,0 Z" id="Combined-Shape"></path>
            <path d="M267,30 C241,30 127.798275,30 108,30 C82.0009717,30 83,8 83,6 C83,3 81,2.48689958e-14 77,2.48689958e-14 C75,2.48950166e-14 74.3450808,2.48689958e-14 75,2.48689958e-14 C86.326246,2.48689958e-14 161.326246,2.48689958e-14 300,2.48689958e-14 L298,8.17124146e-14 C294,8.17002715e-14 292.000595,3 292,6 C291.999603,8 293,30 267,30 Z" id="Path"></path>
        </g>
    </g>
</svg>